<svg width="165" height="52" viewBox="0 0 165 52" fill="none" xmlns="http://www.w3.org/2000/svg">
<mask id="mask0_28_36" style="mask-type:alpha" maskUnits="userSpaceOnUse" x="0" y="0" width="53" height="52">
<rect width="52.5514" height="52" fill="#D9D9D9"/>
</mask>
<g mask="url(#mask0_28_36)">
<path d="M29.1223 37.4834L19.0499 27.5167C18.8309 27.3001 18.6758 27.0653 18.5846 26.8126C18.4934 26.5598 18.4478 26.289 18.4478 26.0001C18.4478 25.7112 18.4934 25.4403 18.5846 25.1876C18.6758 24.9348 18.8309 24.7001 19.0499 24.4834L29.1223 14.5167C29.5237 14.1195 30.0346 13.9209 30.655 13.9209C31.2754 13.9209 31.7863 14.1195 32.1877 14.5167C32.5892 14.914 32.7899 15.4195 32.7899 16.0334C32.7899 16.6473 32.5892 17.1528 32.1877 17.5501L23.6481 26.0001L32.1877 34.4501C32.5892 34.8473 32.7899 35.3528 32.7899 35.9667C32.7899 36.5806 32.5892 37.0862 32.1877 37.4834C31.7863 37.8806 31.2754 38.0792 30.655 38.0792C30.0346 38.0792 29.5237 37.8806 29.1223 37.4834Z" fill="#FFEB32"/>
</g>
<mask id="mask1_28_36" style="mask-type:alpha" maskUnits="userSpaceOnUse" x="112" y="0" width="53" height="52">
<rect x="112.449" width="52.5514" height="52" fill="#D9D9D9"/>
</mask>
<g mask="url(#mask1_28_36)">
<path d="M131.499 37.4834C131.097 37.0862 130.896 36.5806 130.896 35.9667C130.896 35.3528 131.097 34.8473 131.499 34.4501L140.038 26.0001L131.499 17.5501C131.097 17.1528 130.896 16.6473 130.896 16.0334C130.896 15.4195 131.097 14.914 131.499 14.5167C131.9 14.1195 132.411 13.9209 133.031 13.9209C133.652 13.9209 134.163 14.1195 134.564 14.5167L144.636 24.4834C144.855 24.7001 145.01 24.9348 145.102 25.1876C145.193 25.4403 145.239 25.7112 145.239 26.0001C145.239 26.289 145.193 26.5598 145.102 26.8126C145.01 27.0653 144.855 27.3001 144.636 27.5167L134.564 37.4834C134.163 37.8806 133.652 38.0792 133.031 38.0792C132.411 38.0792 131.9 37.8806 131.499 37.4834Z" fill="#FFEB32"/>
</g>
<path d="M67.6726 23.286C67.7743 23.7945 67.8082 24.337 67.8082 24.8455C67.8082 25.4219 67.7404 25.9644 67.6726 26.5069C66.9606 31.4908 62.926 35.3897 57.9421 36H57.8743H47.4657V21.6925H52.2123V31.2534H57.5691C60.2137 30.8466 62.3496 28.8123 62.8921 26.2017C62.9938 25.761 63.0277 25.3202 63.0277 24.8455C63.0277 24.4387 62.9938 23.9979 62.926 23.5911C62.5869 22.0315 61.7393 20.6414 60.451 19.6921C59.6712 19.1158 58.7897 18.7089 57.8404 18.5055C57.5352 18.4377 57.1962 18.4038 56.8572 18.3699H47.4657V13.6233L57.4335 13.6572C59.8407 13.8267 62.1801 14.8099 64.0109 16.4373C66.0113 18.2003 67.2996 20.6414 67.6726 23.286ZM73.9639 13.9284L78.8122 22.6757L75.8286 28.0325L68.5053 14.776L67.8612 13.6233H73.7944L73.9639 13.9284ZM87.6272 13.6233H93.5944L92.9502 14.776L81.3889 36H80.1344L77.7272 31.4569L80.7108 26.1L81.2872 25.0829L82.2704 23.3199L87.4577 13.9284L87.6272 13.6233ZM112.07 27.0832H117.054L116.681 28.2699C115.969 30.5075 114.579 32.4062 112.681 33.8301C110.714 35.2541 108.409 36 106.001 36C103.289 36 100.678 35.0507 98.6103 33.2538C96.61 31.4908 95.2538 29.0836 94.8809 26.439C94.8131 25.8966 94.7792 25.3202 94.7792 24.7777C94.7792 24.2353 94.8131 23.7267 94.8809 23.1842C95.2538 20.5397 96.5761 18.0986 98.6103 16.3356C100.645 14.5387 103.289 13.5555 106.001 13.5555C108.476 13.5555 110.85 14.3353 112.816 15.8271C114.715 17.2849 116.139 19.3531 116.783 21.6586L117.122 22.7774H112.206L111.969 22.2349C110.951 19.8616 108.612 18.3021 106.001 18.3021C102.916 18.3021 100.238 20.4719 99.6613 23.4894C99.5596 23.9301 99.5257 24.337 99.5257 24.7777C99.5257 25.2185 99.5596 25.6932 99.6613 26.1C100.272 29.0836 102.95 31.2534 106.001 31.2534C108.476 31.2534 110.748 29.8295 111.833 27.5918L112.07 27.0832Z" fill="#FFEB32"/>
</svg>
