<svg width="36" height="23" viewBox="0 0 36 23" fill="none" xmlns="http://www.w3.org/2000/svg">
<g clip-path="url(#clip0_220_33)">
<path d="M34.056 7.99673C33.6384 6.83463 33.12 5.70158 32.4432 4.6121C31.7736 3.52989 30.924 2.484 29.8296 1.61242C28.7424 0.748101 27.3168 0.094417 25.8048 -0.0290567L25.2432 -0.0581093C25.0488 -0.0508461 24.8328 -0.0508462 24.6312 -0.0290567C24.2208 0.0145223 23.832 0.108943 23.4648 0.217891C22.7232 0.450312 22.0752 0.798943 21.5064 1.17663C20.484 1.85936 19.6704 2.65105 18.936 3.46452C18.9432 3.47905 18.9576 3.48631 18.9648 3.50084L19.1232 3.70421C19.4904 4.19084 20.2896 5.30936 21.0024 6.51505C21.888 5.64347 23.04 4.59031 23.5152 4.28526C23.8752 4.0601 24.228 3.88579 24.5448 3.79136C24.7104 3.74779 24.8616 3.71147 25.0056 3.70421C25.0776 3.68968 25.1424 3.69694 25.2216 3.68968L25.4952 3.70421C26.2008 3.76958 26.892 4.0601 27.5472 4.56852C28.8504 5.61442 29.88 7.39389 30.5496 9.27505C31.2336 11.1635 31.6224 13.2262 31.644 15.2163C31.644 16.1678 31.5216 17.0829 31.2336 17.8383C30.9528 18.6009 30.24 18.8915 29.4336 18.8915C28.26 18.8915 27.4104 18.3831 26.7264 17.6713C25.9776 16.8796 25.272 15.9935 24.5952 15.0493C24.0336 14.2576 23.4864 13.4368 22.968 12.6016C22.0536 11.1054 20.8296 9.20968 19.98 7.62631L18 4.6121C17.7768 4.32884 17.5608 4.04558 17.3232 3.76231C16.524 2.84715 15.6384 1.94652 14.4936 1.17663C13.9248 0.798943 13.2768 0.450312 12.5352 0.217891C12.168 0.108943 11.7792 0.0145223 11.3688 -0.0290567C11.2392 -0.043583 11.1096 -0.050846 10.98 -0.050846C10.9008 -0.050846 10.8288 -0.0581093 10.7568 -0.0581093L10.1952 -0.0290567C8.68322 0.094417 7.25762 0.748101 6.17042 1.61242C5.07602 2.484 4.22642 3.52989 3.55682 4.6121C2.88002 5.70158 2.36162 6.83463 1.94402 7.99673C1.13042 10.3209 0.691221 12.725 0.684021 15.209C0.691221 16.5019 0.856821 17.8456 1.37522 19.182C1.87922 20.4894 2.82962 21.8766 4.34162 22.6465C5.08322 23.0315 5.92562 23.2348 6.73202 23.2348C7.61762 23.2566 8.46002 23.0024 9.12962 22.6756C10.476 22.0001 11.4048 21.1067 12.2472 20.2061C13.9104 18.383 15.1416 16.4075 16.2792 14.3956C16.596 13.8436 16.8984 13.277 17.1936 12.7033C17.0424 12.4055 16.8912 12.0932 16.7328 11.7663C16.2864 11.0182 15.732 10.1321 15.3288 9.51473C14.7312 10.6042 14.112 11.6646 13.4712 12.7178C12.3264 14.5481 11.0952 16.3276 9.72002 17.7875C9.03602 18.4993 8.28002 19.1239 7.61762 19.4217C7.27922 19.5669 7.02002 19.6178 6.79682 19.6033C6.48722 19.6033 6.22802 19.5306 5.98322 19.3999C5.50082 19.1457 5.04722 18.6009 4.76642 17.8383C4.47842 17.0829 4.35602 16.1678 4.35602 15.2163C4.37762 13.2262 4.76642 11.1635 5.45042 9.27505C6.12002 7.39389 7.14962 5.61442 8.45282 4.56852C9.10802 4.0601 9.79922 3.76958 10.5048 3.70421L10.7784 3.68968C10.8576 3.69694 10.9224 3.68968 10.9944 3.70421C11.1384 3.71147 11.2896 3.74779 11.4552 3.79136C11.6424 3.84947 11.844 3.92936 12.0528 4.03831C12.1968 4.11094 12.3408 4.19084 12.4848 4.28526C13.2048 4.7501 13.9176 5.43284 14.5872 6.18821C15.1056 6.77652 15.6024 7.43021 16.0992 8.09842L18 11.069C18.54 12.1948 19.1016 13.3134 19.7208 14.3956C20.8584 16.4075 22.0896 18.383 23.7528 20.2061C24.2424 20.7363 24.768 21.2593 25.3872 21.7314C25.8264 22.08 26.3088 22.3923 26.8704 22.6756C27.54 23.0024 28.3824 23.2566 29.268 23.2348C30.0744 23.2348 30.9168 23.0315 31.6584 22.6465C33.1704 21.8766 34.1208 20.4894 34.6248 19.182C35.1432 17.8456 35.3088 16.5019 35.316 15.209C35.3088 12.725 34.8696 10.3209 34.056 7.99673Z" fill="white"/>
</g>
<defs>
<clipPath id="clip0_220_33">
<rect width="36" height="23" fill="white"/>
</clipPath>
</defs>
</svg>
